<svg width="73" height="91" viewBox="0 0 73 91" fill="none" xmlns="http://www.w3.org/2000/svg">
<g clip-path="url(#clip0)">
<path d="M53.9565 28.487H54.1184C54.8516 32.0985 58.054 34.8174 61.8913 34.8174C66.2745 34.8174 69.8261 31.2755 69.8261 26.9043C69.8261 26.6954 69.7785 26.496 69.7626 26.2903C69.7912 26.0023 69.8197 25.7142 69.7499 25.3977L64.7796 3.08925C64.4019 1.3927 62.6626 0 60.9169 0H8.90917C7.16352 0 5.42422 1.3927 5.04652 3.08925L0.073 25.3977C0.00634783 25.7142 0.0317391 26.0023 0.0603043 26.2903C0.0476087 26.496 0 26.6954 0 26.9043C0 31.2755 3.55161 34.8174 7.93478 34.8174C11.772 34.8174 14.9745 32.0985 15.7077 28.487H15.8696C15.8696 31.9814 18.7134 34.8174 22.2174 34.8174C25.7214 34.8174 28.5652 31.9814 28.5652 28.487C28.5652 31.9814 31.409 34.8174 34.913 34.8174C38.417 34.8174 41.2609 31.9814 41.2609 28.487C41.2609 31.9814 44.1047 34.8174 47.6087 34.8174C51.1127 34.8174 53.9565 31.9814 53.9565 28.487Z" fill="black"/>
<path d="M9.52361 50.6435V37.9826H3.17578V66.4696C3.17578 68.2168 4.59452 69.6348 6.34969 69.6348H42.015C40.5264 66.7924 39.6758 63.5671 39.6758 60.1391C39.6758 56.7112 40.5296 53.4858 42.015 50.6435H9.52361Z" fill="black"/>
<path d="M63.4789 47.4783H57.1311V56.9739H47.6094V63.3044H57.1311V72.8H63.4789V63.3044H73.0007V56.9739H63.4789V47.4783Z" fill="black"/>
</g>
<defs>
<clipPath id="clip0">
<rect width="73" height="91" fill="white"/>
</clipPath>
</defs>
</svg>
