<svg width="19" height="19" viewBox="0 0 19 19" fill="none" xmlns="http://www.w3.org/2000/svg">
<path d="M15.8333 17.4166H3.16667C2.9567 17.4166 2.75534 17.3332 2.60687 17.1848C2.45841 17.0363 2.375 16.8349 2.375 16.625V2.37498C2.375 2.16502 2.45841 1.96365 2.60687 1.81519C2.75534 1.66672 2.9567 1.58331 3.16667 1.58331H15.8333C16.0433 1.58331 16.2447 1.66672 16.3931 1.81519C16.5416 1.96365 16.625 2.16502 16.625 2.37498V16.625C16.625 16.8349 16.5416 17.0363 16.3931 17.1848C16.2447 17.3332 16.0433 17.4166 15.8333 17.4166ZM6.33333 7.12498V8.70831H12.6667V7.12498H6.33333ZM6.33333 10.2916V11.875H12.6667V10.2916H6.33333Z" fill="#FD8A36"/>
</svg>
