<svg width="24" height="15" viewBox="0 0 24 15" fill="none" xmlns="http://www.w3.org/2000/svg">
<path d="M18.6255 3.21429C18.6255 4.42798 17.6349 5.42857 16.3636 5.42857C15.0879 5.42857 14.0909 4.42366 14.0909 3.21429C14.0909 2.00491 15.0879 1 16.3636 1C17.6349 1 18.6255 2.00059 18.6255 3.21429ZM9.89818 3.21429C9.89818 4.42798 8.90766 5.42857 7.63636 5.42857C6.36068 5.42857 5.36364 4.42366 5.36364 3.21429C5.36364 2.00491 6.36068 1 7.63636 1C8.90766 1 9.89818 2.00059 9.89818 3.21429ZM1 12.3214C1 12.0718 1.11936 11.7746 1.50706 11.4235C1.90083 11.0668 2.49502 10.7301 3.23079 10.441C4.70319 9.86227 6.488 9.57143 7.63636 9.57143C8.78473 9.57143 10.5695 9.86227 12.0419 10.441C12.7777 10.7301 13.3719 11.0668 13.7657 11.4235C14.1534 11.7746 14.2727 12.0718 14.2727 12.3214V13.9286C14.2727 13.9391 14.2694 13.9543 14.2516 13.9718C14.2335 13.9896 14.2096 14 14.1818 14H1.09091C1.06314 14 1.03925 13.9896 1.02116 13.9718C1.00333 13.9543 1 13.9391 1 13.9286V12.3214ZM17.692 9.66867C18.6695 9.79784 19.7886 10.0556 20.7692 10.441C21.505 10.7301 22.0992 11.0668 22.4929 11.4235C22.8806 11.7746 23 12.0718 23 12.3214V13.9286C23 13.9391 22.9967 13.9543 22.9788 13.9718C22.9607 13.9896 22.9369 14 22.9091 14H18.4539C18.4543 13.9763 18.4545 13.9524 18.4545 13.9286V12.3214C18.4545 11.2997 18.1639 10.4195 17.692 9.66867Z" stroke="#FD8A36" stroke-width="2"/>
</svg>
