<svg width="25" height="22" viewBox="0 0 25 22" fill="none" xmlns="http://www.w3.org/2000/svg">
<path d="M21.8694 5.3479L20.3113 19.545C20.2615 19.9459 20.0581 20.3155 19.7398 20.5837C19.4214 20.8519 19.0102 21.0001 18.5841 21.0001H6.02488C5.59884 21.0001 5.18762 20.8519 4.86925 20.5837C4.55088 20.3155 4.3475 19.9459 4.29771 19.545L2.73901 5.3479" stroke="#FF0707" stroke-width="2" stroke-linecap="round" stroke-linejoin="round"/>
<path d="M22.8012 1H1.80745C1.36151 1 1 1.38932 1 1.86957V4.47826C1 4.95851 1.36151 5.34783 1.80745 5.34783H22.8012C23.2472 5.34783 23.6087 4.95851 23.6087 4.47826V1.86957C23.6087 1.38932 23.2472 1 22.8012 1Z" stroke="#FF0707" stroke-width="2" stroke-linecap="round" stroke-linejoin="round"/>
<path d="M14.9131 9.69556L8.82617 15.7825" stroke="#FF0707" stroke-width="2" stroke-linecap="round" stroke-linejoin="round"/>
<path d="M14.9131 15.7825L8.82617 9.69556" stroke="#FF0707" stroke-width="2" stroke-linecap="round" stroke-linejoin="round"/>
</svg>
