<svg width="23" height="23" viewBox="0 0 23 23" fill="none" xmlns="http://www.w3.org/2000/svg">
<path d="M10.7718 10.3436C13.0512 10.3436 14.899 8.49577 14.899 6.21637C14.899 3.93697 13.0512 2.08915 10.7718 2.08915C8.49235 2.08915 6.64453 3.93697 6.64453 6.21637C6.64453 8.49577 8.49235 10.3436 10.7718 10.3436Z" fill="#333333"/>
<path d="M13.418 17.8889H17.8902V18.7833H13.418V17.8889Z" fill="#333333"/>
<path d="M9.58363 19.1666V21.0833C9.58363 21.2527 9.65095 21.4152 9.77076 21.535C9.89058 21.6548 10.0531 21.7221 10.2225 21.7221H21.0836C21.2531 21.7221 21.4156 21.6548 21.5354 21.535C21.6552 21.4152 21.7225 21.2527 21.7225 21.0833V14.6944C21.7225 14.5249 21.6552 14.3624 21.5354 14.2426C21.4156 14.1228 21.2531 14.0555 21.0836 14.0555H16.6114V13.1163C16.6114 12.9469 16.5441 12.7844 16.4243 12.6645C16.3045 12.5447 16.142 12.4774 15.9725 12.4774C15.8031 12.4774 15.6406 12.5447 15.5208 12.6645C15.4009 12.7844 15.3336 12.9469 15.3336 13.1163V14.0555H14.0559V11.7683C12.9702 11.5909 11.872 11.5012 10.772 11.4999C8.34598 11.4896 5.94717 12.0108 3.74419 13.0269C3.38161 13.198 3.07573 13.4695 2.86283 13.8092C2.64993 14.149 2.53896 14.5426 2.54308 14.9435V19.1666H9.58363ZM20.4447 20.4444H10.8614V15.3333H15.3336V15.6016C15.3336 15.771 15.4009 15.9335 15.5208 16.0534C15.6406 16.1732 15.8031 16.2405 15.9725 16.2405C16.142 16.2405 16.3045 16.1732 16.4243 16.0534C16.5441 15.9335 16.6114 15.771 16.6114 15.6016V15.3333H20.4447V20.4444Z" fill="#333333"/>
</svg>
