<svg width="51" height="40" viewBox="0 0 51 40" fill="none" xmlns="http://www.w3.org/2000/svg">
<path d="M45.1641 0.325012H5.83073C3.11919 0.325012 0.914062 2.53014 0.914062 5.24168V34.7417C0.914062 37.4532 3.11919 39.6583 5.83073 39.6583H45.1641C47.8756 39.6583 50.0807 37.4532 50.0807 34.7417V5.24168C50.0807 2.53014 47.8756 0.325012 45.1641 0.325012ZM11.9766 7.70001C12.9545 7.70001 13.8925 8.08851 14.584 8.78005C15.2756 9.47159 15.6641 10.4095 15.6641 11.3875C15.6641 12.3655 15.2756 13.3034 14.584 13.995C13.8925 14.6865 12.9545 15.075 11.9766 15.075C10.9986 15.075 10.0606 14.6865 9.36911 13.995C8.67757 13.3034 8.28906 12.3655 8.28906 11.3875C8.28906 10.4095 8.67757 9.47159 9.36911 8.78005C10.0606 8.08851 10.9986 7.70001 11.9766 7.70001ZM25.4974 32.2833H8.28906L18.1224 19.9917L21.8099 24.9083L29.1849 15.075L42.7057 32.2833H25.4974Z" fill="#6B6B6B"/>
</svg>
