<svg width="29" height="28" viewBox="0 0 29 28" fill="none" xmlns="http://www.w3.org/2000/svg">
<path d="M28.0129 9.73439L19.3347 8.47316L15.4553 0.608411C15.3494 0.393079 15.175 0.218763 14.9597 0.112806C14.4197 -0.153796 13.7634 0.0683721 13.4934 0.608411L9.61401 8.47316L0.935787 9.73439C0.696529 9.76857 0.477779 9.88136 0.310298 10.0523C0.107824 10.2604 -0.0037492 10.5403 9.62019e-05 10.8307C0.0039416 11.121 0.122891 11.3979 0.330806 11.6006L6.60961 17.7222L5.12622 26.3662C5.09143 26.5673 5.11368 26.7741 5.19045 26.9632C5.26721 27.1523 5.39542 27.3161 5.56053 27.436C5.72564 27.5559 5.92105 27.6271 6.1246 27.6417C6.32815 27.6562 6.5317 27.6134 6.71215 27.5181L14.4744 23.437L22.2366 27.5181C22.4485 27.6309 22.6946 27.6685 22.9304 27.6275C23.5251 27.5249 23.925 26.961 23.8225 26.3662L22.3391 17.7222L28.6179 11.6006C28.7888 11.4331 28.9016 11.2144 28.9358 10.9751C29.0281 10.377 28.6111 9.82326 28.0129 9.73439Z" fill="#FFD248"/>
</svg>
