<svg width="20" height="17" viewBox="0 0 20 17" fill="none" xmlns="http://www.w3.org/2000/svg">
<path d="M13.0307 5.4678C12.9116 5.51723 12.8034 5.58967 12.7122 5.68096C12.6209 5.77208 12.5485 5.8803 12.4991 5.99943C12.4496 6.11864 12.4241 6.24644 12.4241 6.37551C12.4241 6.50458 12.4496 6.63238 12.4991 6.75159C12.5485 6.87077 12.621 6.97902 12.7123 7.07016C12.7124 7.07018 12.7124 7.07021 12.7124 7.07024L16.7067 11.063L12.7123 15.0559L12.7122 15.056C12.528 15.2402 12.4246 15.49 12.4246 15.7505C12.4246 16.011 12.528 16.2608 12.7122 16.4451C12.8965 16.6293 13.1463 16.7327 13.4068 16.7327C13.6673 16.7327 13.9171 16.6293 14.1013 16.4451L18.7887 11.7577C18.88 11.6666 18.9525 11.5583 19.002 11.4391L18.8173 11.3624L19.002 11.4391C19.0515 11.3199 19.0769 11.1921 19.0769 11.063C19.0769 10.9339 19.0515 10.8061 19.002 10.6869C18.9525 10.5677 18.88 10.4594 18.7887 10.3683L14.1015 5.68114C14.1015 5.68112 14.1015 5.6811 14.1014 5.68108C14.0103 5.58973 13.9021 5.51725 13.7829 5.4678C13.6637 5.41833 13.5359 5.39286 13.4068 5.39286C13.2777 5.39286 13.1499 5.41833 13.0307 5.4678Z" fill="white" stroke="white" stroke-width="0.4"/>
<path d="M1.6875 0.70625C1.42726 0.70625 1.17767 0.809632 0.993652 0.993652C0.809632 1.17767 0.70625 1.42726 0.70625 1.6875V7.9375C0.70625 9.02655 1.13887 10.071 1.90894 10.8411C2.67901 11.6111 3.72345 12.0437 4.8125 12.0437H18.0938C18.354 12.0437 18.6036 11.9404 18.7876 11.7563C18.9716 11.5723 19.075 11.3227 19.075 11.0625C19.075 10.8023 18.9716 10.5527 18.7876 10.3687C18.6036 10.1846 18.354 10.0813 18.0938 10.0813H4.8125C4.24394 10.0813 3.69867 9.85539 3.29664 9.45336C2.89461 9.05133 2.66875 8.50606 2.66875 7.9375V1.6875C2.66875 1.42726 2.56537 1.17767 2.38135 0.993652C2.19733 0.809632 1.94774 0.70625 1.6875 0.70625Z" fill="white" stroke="white" stroke-width="0.4"/>
</svg>
