<svg width="22" height="25" viewBox="0 0 22 25" fill="none" xmlns="http://www.w3.org/2000/svg">
<path d="M2.47463 11.5827L11.872 2.43727C13.9812 0.384843 17.4008 0.384843 19.5099 2.43727C21.6191 4.4897 21.6191 7.81734 19.5099 9.86976L10.1122 19.0148L9.26351 18.189L10.1113 19.0139C8.93536 20.0938 7.08229 20.0738 5.93147 18.9539C4.75972 17.8137 4.75972 15.965 5.93147 14.8248L15.2667 5.7406C15.501 5.51255 15.881 5.51255 16.1153 5.7406C16.3497 5.96865 16.3497 6.33839 16.1153 6.56643L6.78012 15.6506C6.07708 16.3347 6.07708 17.4439 6.78012 18.1281C7.48317 18.8122 8.62303 18.8122 9.32608 18.1281L18.6613 9.04393C20.3017 7.4476 20.3017 4.85943 18.6613 3.2631C17.0208 1.66677 14.3611 1.66677 12.7207 3.2631L3.38551 12.3473C0.80767 14.8558 0.80767 18.9229 3.38551 21.4314C5.96335 23.9399 10.1429 23.9399 12.7207 21.4314L20.3586 13.9989C20.5929 13.7709 20.9729 13.7709 21.2072 13.9989C21.4416 14.227 21.4416 14.5967 21.2072 14.8248L13.5693 22.2573C10.5228 25.2219 5.5834 25.2219 2.53686 22.2573C-0.488797 19.313 -0.509538 14.5519 2.47463 11.5827Z" fill="#8F8D9A"/>
</svg>
