<svg width="16" height="16" viewBox="0 0 16 16" fill="none" xmlns="http://www.w3.org/2000/svg">
<mask id="path-1-outside-1" maskUnits="userSpaceOnUse" x="0" y="0" width="16" height="17" fill="black">
<rect fill="white" width="16" height="17"/>
<path d="M14.2759 9H12.9928C13.0409 9.13859 13.0483 9.28883 13.0139 9.43173C12.9796 9.57464 12.9051 9.70379 12.7999 9.80287L10.8183 11.6841L10.8181 11.6839C10.8164 11.6855 10.8151 11.6873 10.8132 11.6888L7.68156 14.5H7.75862C7.82264 14.5 7.88403 14.5263 7.9293 14.5732C7.97457 14.6201 8 14.6837 8 14.75V15.75C8 15.8163 7.97457 15.8799 7.9293 15.9268C7.88403 15.9737 7.82264 16 7.75862 16H4.86207C4.79805 16 4.73666 15.9737 4.69139 15.9268C4.64612 15.8799 4.62069 15.8163 4.62069 15.75V14.75C4.62069 14.6837 4.64612 14.6201 4.69139 14.5732C4.73666 14.5263 4.79805 14.5 4.86207 14.5V14.1035L4.73281 13.9697C4.62038 13.8539 4.53125 13.7161 4.47057 13.5644C4.40989 13.4127 4.37887 13.25 4.37931 13.0858V11.5542L3.50431 9.56041C3.42645 9.38386 3.41805 9.18285 3.4809 9H1.72414C1.53215 8.99977 1.3481 8.92068 1.21234 8.78007C1.07659 8.63947 1.00022 8.44884 1 8.25V7.75C1 7.6837 1.02543 7.62011 1.0707 7.57322C1.11597 7.52634 1.17736 7.5 1.24138 7.5H2.2069V7.25C2.2069 4.35512 4.48081 2 7.27586 2V1.5H7.03448C6.97046 1.5 6.90907 1.47366 6.8638 1.42678C6.81853 1.37989 6.7931 1.3163 6.7931 1.25C6.7931 1.1837 6.81853 1.12011 6.8638 1.07322C6.90907 1.02634 6.97046 1 7.03448 1H8.96552C9.02954 1 9.09093 1.02634 9.1362 1.07322C9.18147 1.12011 9.2069 1.1837 9.2069 1.25C9.2069 1.3163 9.18147 1.37989 9.1362 1.42678C9.09093 1.47366 9.02954 1.5 8.96552 1.5H8.72414V2C11.5192 2 13.7931 4.35512 13.7931 7.25V7.5H14.7586C14.8226 7.5 14.884 7.52634 14.9293 7.57322C14.9746 7.62011 15 7.6837 15 7.75V8.25C14.9998 8.44884 14.9234 8.63947 14.7877 8.78007C14.6519 8.92068 14.4678 8.99977 14.2759 9ZM12.5356 9.15938C12.5186 9.11198 12.4879 9.0712 12.4476 9.04266C12.4073 9.01412 12.3594 8.99921 12.3106 9H12.1728C12.1265 9.00006 12.0812 9.0139 12.0422 9.03988C12.0033 9.06586 11.9723 9.10287 11.9531 9.14653L11.7716 9.55997V9.56034L11.3649 10.4871L12.4738 9.43437C12.5103 9.40079 12.5358 9.35631 12.5469 9.30706C12.558 9.25781 12.554 9.20621 12.5356 9.15938ZM5.10345 15.5H7.51724V15H5.10345V15.5ZM3.96058 9.11466C3.93835 9.14967 3.92514 9.18999 3.9222 9.23178C3.91926 9.27358 3.92669 9.31545 3.94377 9.35344L4.84044 11.3965C4.85468 11.429 4.86206 11.4643 4.86207 11.5V13.0858C4.86181 13.1843 4.88042 13.2819 4.91683 13.373C4.95323 13.464 5.0067 13.5466 5.07415 13.6161L5.27413 13.8232C5.29655 13.8464 5.31433 13.874 5.32646 13.9043C5.33859 13.9347 5.34483 13.9672 5.34483 14V14.5H6.94445L10.4572 11.3469L11.3322 9.35347C11.349 9.31537 11.3562 9.27354 11.3532 9.23181C11.3503 9.19007 11.3373 9.14977 11.3154 9.11459C11.2935 9.07942 11.2635 9.05049 11.228 9.03047C11.1925 9.01045 11.1527 8.99997 11.1123 9H10.9535C10.9087 8.99984 10.8647 9.0127 10.8265 9.03712C10.7884 9.06155 10.7576 9.09656 10.7376 9.13819L9.90554 10.8618C9.8791 10.9166 9.83418 10.9594 9.7793 10.9821L7.3655 11.9821C7.3184 12.0016 7.26655 12.0053 7.21733 11.9925L6.25181 11.7425C6.21944 11.7342 6.1891 11.7189 6.1627 11.6978C6.1363 11.6766 6.11442 11.6501 6.09844 11.6197L4.78739 9.13028C4.76662 9.09085 4.73598 9.05793 4.69868 9.03501C4.66138 9.01208 4.6188 8.99999 4.57543 9H4.16346C4.12301 8.99962 4.08314 9.00995 4.04763 9.03001C4.01212 9.05008 3.98215 9.07922 3.96058 9.11466ZM10.2646 9H5.26867L6.47156 11.2841L7.25869 11.4878L9.51466 10.5531L10.2646 9ZM8.24138 1.5H7.75862V2H8.24138V1.5ZM13.3103 7.25C13.3103 4.63084 11.253 2.5 8.72414 2.5H7.27586C4.74702 2.5 2.68966 4.63084 2.68966 7.25V7.5H13.3103V7.25ZM14.5172 8H1.48276V8.25C1.48283 8.31628 1.50828 8.37983 1.55354 8.42669C1.59879 8.47356 1.66014 8.49993 1.72414 8.5H14.2759C14.3399 8.49993 14.4012 8.47356 14.4465 8.42669C14.4917 8.37983 14.5172 8.31628 14.5172 8.25V8Z"/>
</mask>
<path d="M14.2759 9H12.9928C13.0409 9.13859 13.0483 9.28883 13.0139 9.43173C12.9796 9.57464 12.9051 9.70379 12.7999 9.80287L10.8183 11.6841L10.8181 11.6839C10.8164 11.6855 10.8151 11.6873 10.8132 11.6888L7.68156 14.5H7.75862C7.82264 14.5 7.88403 14.5263 7.9293 14.5732C7.97457 14.6201 8 14.6837 8 14.75V15.75C8 15.8163 7.97457 15.8799 7.9293 15.9268C7.88403 15.9737 7.82264 16 7.75862 16H4.86207C4.79805 16 4.73666 15.9737 4.69139 15.9268C4.64612 15.8799 4.62069 15.8163 4.62069 15.75V14.75C4.62069 14.6837 4.64612 14.6201 4.69139 14.5732C4.73666 14.5263 4.79805 14.5 4.86207 14.5V14.1035L4.73281 13.9697C4.62038 13.8539 4.53125 13.7161 4.47057 13.5644C4.40989 13.4127 4.37887 13.25 4.37931 13.0858V11.5542L3.50431 9.56041C3.42645 9.38386 3.41805 9.18285 3.4809 9H1.72414C1.53215 8.99977 1.3481 8.92068 1.21234 8.78007C1.07659 8.63947 1.00022 8.44884 1 8.25V7.75C1 7.6837 1.02543 7.62011 1.0707 7.57322C1.11597 7.52634 1.17736 7.5 1.24138 7.5H2.2069V7.25C2.2069 4.35512 4.48081 2 7.27586 2V1.5H7.03448C6.97046 1.5 6.90907 1.47366 6.8638 1.42678C6.81853 1.37989 6.7931 1.3163 6.7931 1.25C6.7931 1.1837 6.81853 1.12011 6.8638 1.07322C6.90907 1.02634 6.97046 1 7.03448 1H8.96552C9.02954 1 9.09093 1.02634 9.1362 1.07322C9.18147 1.12011 9.2069 1.1837 9.2069 1.25C9.2069 1.3163 9.18147 1.37989 9.1362 1.42678C9.09093 1.47366 9.02954 1.5 8.96552 1.5H8.72414V2C11.5192 2 13.7931 4.35512 13.7931 7.25V7.5H14.7586C14.8226 7.5 14.884 7.52634 14.9293 7.57322C14.9746 7.62011 15 7.6837 15 7.75V8.25C14.9998 8.44884 14.9234 8.63947 14.7877 8.78007C14.6519 8.92068 14.4678 8.99977 14.2759 9ZM12.5356 9.15938C12.5186 9.11198 12.4879 9.0712 12.4476 9.04266C12.4073 9.01412 12.3594 8.99921 12.3106 9H12.1728C12.1265 9.00006 12.0812 9.0139 12.0422 9.03988C12.0033 9.06586 11.9723 9.10287 11.9531 9.14653L11.7716 9.55997V9.56034L11.3649 10.4871L12.4738 9.43437C12.5103 9.40079 12.5358 9.35631 12.5469 9.30706C12.558 9.25781 12.554 9.20621 12.5356 9.15938ZM5.10345 15.5H7.51724V15H5.10345V15.5ZM3.96058 9.11466C3.93835 9.14967 3.92514 9.18999 3.9222 9.23178C3.91926 9.27358 3.92669 9.31545 3.94377 9.35344L4.84044 11.3965C4.85468 11.429 4.86206 11.4643 4.86207 11.5V13.0858C4.86181 13.1843 4.88042 13.2819 4.91683 13.373C4.95323 13.464 5.0067 13.5466 5.07415 13.6161L5.27413 13.8232C5.29655 13.8464 5.31433 13.874 5.32646 13.9043C5.33859 13.9347 5.34483 13.9672 5.34483 14V14.5H6.94445L10.4572 11.3469L11.3322 9.35347C11.349 9.31537 11.3562 9.27354 11.3532 9.23181C11.3503 9.19007 11.3373 9.14977 11.3154 9.11459C11.2935 9.07942 11.2635 9.05049 11.228 9.03047C11.1925 9.01045 11.1527 8.99997 11.1123 9H10.9535C10.9087 8.99984 10.8647 9.0127 10.8265 9.03712C10.7884 9.06155 10.7576 9.09656 10.7376 9.13819L9.90554 10.8618C9.8791 10.9166 9.83418 10.9594 9.7793 10.9821L7.3655 11.9821C7.3184 12.0016 7.26655 12.0053 7.21733 11.9925L6.25181 11.7425C6.21944 11.7342 6.1891 11.7189 6.1627 11.6978C6.1363 11.6766 6.11442 11.6501 6.09844 11.6197L4.78739 9.13028C4.76662 9.09085 4.73598 9.05793 4.69868 9.03501C4.66138 9.01208 4.6188 8.99999 4.57543 9H4.16346C4.12301 8.99962 4.08314 9.00995 4.04763 9.03001C4.01212 9.05008 3.98215 9.07922 3.96058 9.11466ZM10.2646 9H5.26867L6.47156 11.2841L7.25869 11.4878L9.51466 10.5531L10.2646 9ZM8.24138 1.5H7.75862V2H8.24138V1.5ZM13.3103 7.25C13.3103 4.63084 11.253 2.5 8.72414 2.5H7.27586C4.74702 2.5 2.68966 4.63084 2.68966 7.25V7.5H13.3103V7.25ZM14.5172 8H1.48276V8.25C1.48283 8.31628 1.50828 8.37983 1.55354 8.42669C1.59879 8.47356 1.66014 8.49993 1.72414 8.5H14.2759C14.3399 8.49993 14.4012 8.47356 14.4465 8.42669C14.4917 8.37983 14.5172 8.31628 14.5172 8.25V8Z" fill="white"/>
<path d="M14.2759 9H12.9928C13.0409 9.13859 13.0483 9.28883 13.0139 9.43173C12.9796 9.57464 12.9051 9.70379 12.7999 9.80287L10.8183 11.6841L10.8181 11.6839C10.8164 11.6855 10.8151 11.6873 10.8132 11.6888L7.68156 14.5H7.75862C7.82264 14.5 7.88403 14.5263 7.9293 14.5732C7.97457 14.6201 8 14.6837 8 14.75V15.75C8 15.8163 7.97457 15.8799 7.9293 15.9268C7.88403 15.9737 7.82264 16 7.75862 16H4.86207C4.79805 16 4.73666 15.9737 4.69139 15.9268C4.64612 15.8799 4.62069 15.8163 4.62069 15.75V14.75C4.62069 14.6837 4.64612 14.6201 4.69139 14.5732C4.73666 14.5263 4.79805 14.5 4.86207 14.5V14.1035L4.73281 13.9697C4.62038 13.8539 4.53125 13.7161 4.47057 13.5644C4.40989 13.4127 4.37887 13.25 4.37931 13.0858V11.5542L3.50431 9.56041C3.42645 9.38386 3.41805 9.18285 3.4809 9H1.72414C1.53215 8.99977 1.3481 8.92068 1.21234 8.78007C1.07659 8.63947 1.00022 8.44884 1 8.25V7.75C1 7.6837 1.02543 7.62011 1.0707 7.57322C1.11597 7.52634 1.17736 7.5 1.24138 7.5H2.2069V7.25C2.2069 4.35512 4.48081 2 7.27586 2V1.5H7.03448C6.97046 1.5 6.90907 1.47366 6.8638 1.42678C6.81853 1.37989 6.7931 1.3163 6.7931 1.25C6.7931 1.1837 6.81853 1.12011 6.8638 1.07322C6.90907 1.02634 6.97046 1 7.03448 1H8.96552C9.02954 1 9.09093 1.02634 9.1362 1.07322C9.18147 1.12011 9.2069 1.1837 9.2069 1.25C9.2069 1.3163 9.18147 1.37989 9.1362 1.42678C9.09093 1.47366 9.02954 1.5 8.96552 1.5H8.72414V2C11.5192 2 13.7931 4.35512 13.7931 7.25V7.5H14.7586C14.8226 7.5 14.884 7.52634 14.9293 7.57322C14.9746 7.62011 15 7.6837 15 7.75V8.25C14.9998 8.44884 14.9234 8.63947 14.7877 8.78007C14.6519 8.92068 14.4678 8.99977 14.2759 9ZM12.5356 9.15938C12.5186 9.11198 12.4879 9.0712 12.4476 9.04266C12.4073 9.01412 12.3594 8.99921 12.3106 9H12.1728C12.1265 9.00006 12.0812 9.0139 12.0422 9.03988C12.0033 9.06586 11.9723 9.10287 11.9531 9.14653L11.7716 9.55997V9.56034L11.3649 10.4871L12.4738 9.43437C12.5103 9.40079 12.5358 9.35631 12.5469 9.30706C12.558 9.25781 12.554 9.20621 12.5356 9.15938ZM5.10345 15.5H7.51724V15H5.10345V15.5ZM3.96058 9.11466C3.93835 9.14967 3.92514 9.18999 3.9222 9.23178C3.91926 9.27358 3.92669 9.31545 3.94377 9.35344L4.84044 11.3965C4.85468 11.429 4.86206 11.4643 4.86207 11.5V13.0858C4.86181 13.1843 4.88042 13.2819 4.91683 13.373C4.95323 13.464 5.0067 13.5466 5.07415 13.6161L5.27413 13.8232C5.29655 13.8464 5.31433 13.874 5.32646 13.9043C5.33859 13.9347 5.34483 13.9672 5.34483 14V14.5H6.94445L10.4572 11.3469L11.3322 9.35347C11.349 9.31537 11.3562 9.27354 11.3532 9.23181C11.3503 9.19007 11.3373 9.14977 11.3154 9.11459C11.2935 9.07942 11.2635 9.05049 11.228 9.03047C11.1925 9.01045 11.1527 8.99997 11.1123 9H10.9535C10.9087 8.99984 10.8647 9.0127 10.8265 9.03712C10.7884 9.06155 10.7576 9.09656 10.7376 9.13819L9.90554 10.8618C9.8791 10.9166 9.83418 10.9594 9.7793 10.9821L7.3655 11.9821C7.3184 12.0016 7.26655 12.0053 7.21733 11.9925L6.25181 11.7425C6.21944 11.7342 6.1891 11.7189 6.1627 11.6978C6.1363 11.6766 6.11442 11.6501 6.09844 11.6197L4.78739 9.13028C4.76662 9.09085 4.73598 9.05793 4.69868 9.03501C4.66138 9.01208 4.6188 8.99999 4.57543 9H4.16346C4.12301 8.99962 4.08314 9.00995 4.04763 9.03001C4.01212 9.05008 3.98215 9.07922 3.96058 9.11466ZM10.2646 9H5.26867L6.47156 11.2841L7.25869 11.4878L9.51466 10.5531L10.2646 9ZM8.24138 1.5H7.75862V2H8.24138V1.5ZM13.3103 7.25C13.3103 4.63084 11.253 2.5 8.72414 2.5H7.27586C4.74702 2.5 2.68966 4.63084 2.68966 7.25V7.5H13.3103V7.25ZM14.5172 8H1.48276V8.25C1.48283 8.31628 1.50828 8.37983 1.55354 8.42669C1.59879 8.47356 1.66014 8.49993 1.72414 8.5H14.2759C14.3399 8.49993 14.4012 8.47356 14.4465 8.42669C14.4917 8.37983 14.5172 8.31628 14.5172 8.25V8Z" stroke="white" stroke-width="0.2" mask="url(#path-1-outside-1)"/>
</svg>
