<svg width="25" height="25" viewBox="0 0 25 25" fill="none" xmlns="http://www.w3.org/2000/svg">
<path d="M11.375 3.5H3.5C2.90326 3.5 2.33097 3.73705 1.90901 4.15901C1.48705 4.58097 1.25 5.15326 1.25 5.75V21.5C1.25 22.0967 1.48705 22.669 1.90901 23.091C2.33097 23.5129 2.90326 23.75 3.5 23.75H19.25C19.8467 23.75 20.419 23.5129 20.841 23.091C21.2629 22.669 21.5 22.0967 21.5 21.5V13.625" stroke="#0C6A9F" stroke-width="2" stroke-linecap="round" stroke-linejoin="round"/>
<path d="M19.8125 1.81253C20.2601 1.36498 20.8671 1.11354 21.5 1.11354C22.1329 1.11354 22.7399 1.36498 23.1875 1.81253C23.6351 2.26008 23.8865 2.86709 23.8865 3.50003C23.8865 4.13296 23.6351 4.73998 23.1875 5.18753L12.5 15.875L8 17L9.125 12.5L19.8125 1.81253Z" stroke="#0C6A9F" stroke-width="2" stroke-linecap="round" stroke-linejoin="round"/>
</svg>
