<svg width="22" height="20" viewBox="0 0 22 20" fill="none" xmlns="http://www.w3.org/2000/svg">
<path d="M21.5447 9.92189L11.5489 0.48972C11.4769 0.421623 11.3914 0.367598 11.2973 0.330737C11.2032 0.293876 11.1023 0.274902 11.0005 0.274902C10.8986 0.274902 10.7977 0.293876 10.7036 0.330737C10.6095 0.367598 10.524 0.421623 10.452 0.48972L0.456229 9.92189C0.165019 10.1969 0 10.5704 0 10.96C0 11.7689 0.696477 12.4266 1.55312 12.4266H2.60633V19.157C2.60633 19.5626 2.95335 19.8903 3.38289 19.8903H9.44734V14.7571H12.1653V19.8903H18.618C19.0476 19.8903 19.3946 19.5626 19.3946 19.157V12.4266H20.4478C20.8603 12.4266 21.2559 12.2731 21.5471 11.9958C22.1514 11.4229 22.1514 10.4948 21.5447 9.92189Z" fill="#FD8A36"/>
</svg>
