<svg width="19" height="22" viewBox="0 0 19 22" fill="none" xmlns="http://www.w3.org/2000/svg">
<path d="M16.2676 19.25H14.9119V19.6582C14.9119 20.4173 14.7036 21.0225 14.2871 21.4736C13.8705 21.9248 13.3657 22.0859 12.7726 21.957L2.13935 19.8301C1.54627 19.7155 1.04143 19.3503 0.624861 18.7344C0.208287 18.1185 0 17.431 0 16.6719V2.75C0 1.99089 0.264771 1.34277 0.794314 0.805664C1.32386 0.268555 1.96284 0 2.71126 0H16.2676C17.016 0 17.655 0.268555 18.1845 0.805664C18.714 1.34277 18.9788 1.99089 18.9788 2.75V16.5C18.9788 17.2591 18.714 17.9072 18.1845 18.4443C17.655 18.9814 17.016 19.25 16.2676 19.25ZM2.71126 8.95898C2.71126 9.61784 2.92308 10.2194 3.34671 10.7637C3.4032 10.8496 3.555 10.9857 3.80212 11.1719C4.04924 11.3581 4.26812 11.555 4.45875 11.7627C4.64939 11.9704 4.7447 12.1745 4.7447 12.375V15.125C4.7447 15.3398 4.96711 15.5368 5.41193 15.7158C5.85674 15.8949 6.53809 16.099 7.45596 16.3281C8.00669 16.4714 8.48328 16.5251 8.88573 16.4893C9.28818 16.4535 9.60238 16.3711 9.82832 16.2422C10.0543 16.1133 10.1672 15.9701 10.1672 15.8125V13.0625C10.1672 12.862 10.2625 12.6722 10.4532 12.4932C10.6438 12.3141 10.8698 12.153 11.131 12.0098C11.3922 11.8665 11.544 11.7734 11.5864 11.7305C11.657 11.6732 11.7594 11.6087 11.8935 11.5371C12.0277 11.4655 12.1124 11.3903 12.1477 11.3115C12.183 11.2327 12.2007 11.0931 12.2007 10.8926C12.2007 10.248 11.9959 9.65365 11.5864 9.10938C11.1769 8.5651 10.6897 8.23568 10.1249 8.12109C9.77183 8.04948 9.43998 8.08529 9.12932 8.22852C8.70568 7.49805 8.14437 7.0612 7.44537 6.91797C6.74638 6.77474 6.19212 6.98242 5.78261 7.54102C5.45782 7.2832 5.12598 7.11849 4.78707 7.04688C4.2081 6.93229 3.71739 7.0612 3.31494 7.43359C2.91249 7.80599 2.71126 8.31445 2.71126 8.95898ZM17.6232 3.73828C17.6232 3.07943 17.3937 2.52083 16.9348 2.0625C16.4758 1.60417 15.9286 1.375 15.2932 1.375H5.4437L12.7726 2.83594C13.3657 2.96484 13.8705 3.33724 14.2871 3.95312C14.7036 4.56901 14.9119 5.24935 14.9119 5.99414V17.875H15.2932C15.9286 17.875 16.4758 17.6423 16.9348 17.1768C17.3937 16.7113 17.6232 16.1562 17.6232 15.5117V3.73828Z" fill="#FD8A36"/>
</svg>
