<svg width="97" height="97" viewBox="0 0 97 97" fill="none" xmlns="http://www.w3.org/2000/svg">
<path d="M64.625 96.875H53.875V86.125H64.625V96.875ZM53.875 59.25H43.125V86.125H53.875V59.25ZM96.875 48.5H86.125V70H96.875V48.5ZM86.125 37.75H75.375V48.5H86.125V37.75ZM21.625 48.5H10.875V59.25H21.625V48.5ZM10.875 37.75H0.125V48.5H10.875V37.75ZM48.5 10.875H59.25V0.125H48.5V10.875ZM8.1875 8.1875V24.3125H24.3125V8.1875H8.1875ZM27 32.375H5.5C2.54375 32.375 0.125 29.9562 0.125 27V5.5C0.125 2.54375 2.54375 0.125 5.5 0.125H27C29.9562 0.125 32.375 2.54375 32.375 5.5V27C32.375 29.9562 29.9562 32.375 27 32.375ZM8.1875 72.6875V88.8125H24.3125V72.6875H8.1875ZM27 96.875H5.5C2.54375 96.875 0.125 94.4563 0.125 91.5V70C0.125 67.0437 2.54375 64.625 5.5 64.625H27C29.9562 64.625 32.375 67.0437 32.375 70V91.5C32.375 94.4563 29.9562 96.875 27 96.875ZM72.6875 8.1875V24.3125H88.8125V8.1875H72.6875ZM91.5 32.375H70C67.0437 32.375 64.625 29.9562 64.625 27V5.5C64.625 2.54375 67.0437 0.125 70 0.125H91.5C94.4563 0.125 96.875 2.54375 96.875 5.5V27C96.875 29.9562 94.4563 32.375 91.5 32.375ZM86.125 86.125V70H64.625V80.75H75.375V96.875H96.875V86.125H86.125ZM75.375 48.5H53.875V59.25H75.375V48.5ZM53.875 37.75H21.625V48.5H32.375V59.25H43.125V48.5H53.875V37.75ZM59.25 32.375V21.625H48.5V10.875H37.75V32.375H59.25ZM20.2812 12.2188H12.2188V20.2812H20.2812V12.2188ZM20.2812 76.7188H12.2188V84.7812H20.2812V76.7188ZM84.7812 12.2188H76.7188V20.2812H84.7812V12.2188Z" fill="black"/>
</svg>
