<svg width="21" height="21" viewBox="0 0 21 21" fill="none" xmlns="http://www.w3.org/2000/svg">
<path d="M18.9991 9.17L17.0449 8.58667C16.9098 8.11493 16.724 7.65922 16.4908 7.2275L17.4474 5.43666C17.4833 5.36907 17.4965 5.2917 17.4849 5.21604C17.4733 5.14038 17.4377 5.07046 17.3833 5.01666L15.9891 3.61666C15.9353 3.56222 15.8654 3.52658 15.7897 3.51502C15.7141 3.50346 15.6367 3.5166 15.5691 3.5525L13.7899 4.50333C13.3539 4.25872 12.8923 4.06308 12.4133 3.92L11.8299 1.98916C11.8052 1.91801 11.7586 1.85651 11.6968 1.81354C11.6349 1.77056 11.5611 1.74831 11.4858 1.75H9.51409C9.43834 1.75035 9.36468 1.77487 9.30382 1.81998C9.24297 1.8651 9.19811 1.92845 9.17575 2.00083L8.59242 3.92583C8.10943 4.06815 7.64378 4.2638 7.20409 4.50916L5.45409 3.56416C5.38649 3.52827 5.30912 3.51512 5.23346 3.52668C5.1578 3.53824 5.08788 3.57389 5.03409 3.62833L3.61659 5.01083C3.56215 5.06463 3.5265 5.13454 3.51494 5.2102C3.50338 5.28586 3.51653 5.36323 3.55242 5.43083L4.49742 7.18083C4.25245 7.61868 4.05681 8.08235 3.91409 8.56333L1.98326 9.14667C1.91088 9.16902 1.84752 9.21388 1.80241 9.27474C1.75729 9.33559 1.73277 9.40925 1.73242 9.485V11.4567C1.73277 11.5324 1.75729 11.6061 1.80241 11.6669C1.84752 11.7278 1.91088 11.7726 1.98326 11.795L3.92576 12.3783C4.07004 12.8513 4.26565 13.3071 4.50909 13.7375L3.55242 15.5692C3.51653 15.6368 3.50338 15.7141 3.51494 15.7898C3.5265 15.8655 3.56215 15.9354 3.61659 15.9892L5.01076 17.3833C5.06455 17.4378 5.13447 17.4734 5.21013 17.485C5.28579 17.4965 5.36316 17.4834 5.43076 17.4475L7.23325 16.485C7.65965 16.7151 8.10943 16.8989 8.57492 17.0333L9.15825 18.9992C9.18061 19.0715 9.22547 19.1349 9.28632 19.18C9.34718 19.2251 9.42084 19.2496 9.49659 19.25H11.4683C11.544 19.2496 11.6177 19.2251 11.6785 19.18C11.7394 19.1349 11.7842 19.0715 11.8066 18.9992L12.3899 17.0275C12.8514 16.8924 13.2973 16.7086 13.7199 16.4792L15.5341 17.4475C15.6017 17.4834 15.6791 17.4965 15.7547 17.485C15.8304 17.4734 15.9003 17.4378 15.9541 17.3833L17.3483 15.9892C17.4027 15.9354 17.4383 15.8655 17.4499 15.7898C17.4615 15.7141 17.4483 15.6368 17.4124 15.5692L16.4441 13.7608C16.6759 13.3366 16.8617 12.8887 16.9983 12.425L18.9641 11.8417C19.0365 11.8193 19.0998 11.7744 19.1449 11.7136C19.1901 11.6527 19.2146 11.5791 19.2149 11.5033V9.51416C19.2184 9.44163 19.1995 9.36978 19.1609 9.30825C19.1224 9.24673 19.0659 9.19849 18.9991 9.17ZM10.4999 13.7083C9.86537 13.7083 9.24507 13.5202 8.71747 13.1676C8.18986 12.8151 7.77864 12.314 7.53581 11.7278C7.29298 11.1415 7.22944 10.4964 7.35324 9.87408C7.47703 9.25173 7.78259 8.68006 8.23129 8.23136C8.67998 7.78267 9.25165 7.47711 9.87401 7.35331C10.4964 7.22952 11.1415 7.29305 11.7277 7.53589C12.3139 7.77872 12.815 8.18994 13.1676 8.71754C13.5201 9.24515 13.7083 9.86545 13.7083 10.5C13.7083 11.3509 13.3702 12.167 12.7686 12.7686C12.1669 13.3703 11.3508 13.7083 10.4999 13.7083Z" fill="#FD8A36"/>
</svg>
