<svg width="24" height="25" viewBox="0 0 24 25" fill="none" xmlns="http://www.w3.org/2000/svg">
<path fill-rule="evenodd" clip-rule="evenodd" d="M12.0796 0.897949C5.52561 0.897949 0.193359 6.25379 0.193359 12.8367C0.193359 19.4197 5.52561 24.7755 12.0796 24.7755C18.6335 24.7755 23.9658 19.4197 23.9658 12.8367C23.9658 6.25379 18.6335 0.897949 12.0796 0.897949ZM12.0796 23.7373C6.09512 23.7373 1.22694 18.8476 1.22694 12.8367C1.22694 6.82581 6.09512 1.9361 12.0796 1.9361C18.064 1.9361 22.9322 6.82581 22.9322 12.8367C22.9322 18.8476 18.064 23.7373 12.0796 23.7373ZM9.70232 10.9265C9.70232 10.1367 9.06237 9.49387 8.27598 9.49387C7.48959 9.49387 6.84964 10.1367 6.84964 10.9265C6.84964 11.7164 7.48959 12.3592 8.27598 12.3592C9.06237 12.3592 9.70232 11.7164 9.70232 10.9265ZM7.80053 10.9265C7.80053 10.6634 8.01401 10.449 8.27598 10.449C8.53795 10.449 8.75143 10.6634 8.75143 10.9265C8.75143 11.1897 8.53795 11.4041 8.27598 11.4041C8.01401 11.4041 7.80053 11.1897 7.80053 10.9265ZM14.4568 10.9265C14.4568 10.1367 15.0968 9.49387 15.8832 9.49387C16.6695 9.49387 17.3095 10.1367 17.3095 10.9265C17.3095 11.7164 16.6695 12.3592 15.8832 12.3592C15.0968 12.3592 14.4568 11.7164 14.4568 10.9265ZM15.4077 10.9265C15.4077 11.1897 15.6212 11.4041 15.8832 11.4041C16.1451 11.4041 16.3586 11.1897 16.3586 10.9265C16.3586 10.6634 16.1451 10.449 15.8832 10.449C15.6212 10.449 15.4077 10.6634 15.4077 10.9265ZM16.397 15.3835C16.589 15.1873 16.92 15.1701 17.1355 15.3463C17.3505 15.522 17.3688 15.8238 17.1763 16.0206C15.8876 17.3353 14.0299 18.0898 12.0797 18.0898C10.1299 18.0898 8.2722 17.3357 6.983 16.0206C6.79054 15.8238 6.80832 15.522 7.0238 15.3463C7.23927 15.1701 7.56929 15.1873 7.76228 15.3835C8.85326 16.4967 10.427 17.1347 12.0797 17.1347C13.7329 17.1347 15.3061 16.4967 16.397 15.3835Z" fill="#8F8D9A"/>
</svg>
