<svg width="118" height="94" viewBox="0 0 118 94" fill="none" xmlns="http://www.w3.org/2000/svg">
<g filter="url(#filter0_d)">
<rect x="8" y="19.4009" width="102" height="55.3714" rx="14" fill="#FD8A36"/>
</g>
<path d="M35.6848 93.0135C43.8612 93.0135 50.6077 86.8914 51.5903 78.981C51.7265 77.8849 50.818 76.985 49.7134 76.985H21.6563C20.5517 76.985 19.6432 77.8849 19.7793 78.981C20.7619 86.8914 27.5084 93.0135 35.6848 93.0135Z" fill="#FD8A36"/>
<path d="M82.7429 0.996893C74.5665 0.996893 67.82 7.11906 66.8374 15.0294C66.7013 16.1256 67.6098 17.0255 68.7143 17.0255L96.7715 17.0255C97.8761 17.0255 98.7846 16.1256 98.6484 15.0294C97.6658 7.11906 90.9193 0.996894 82.7429 0.996893Z" fill="#FD8A36"/>
<path d="M82.7434 93.0135C90.9198 93.0135 97.6663 86.8914 98.6489 78.981C98.7851 77.8849 97.8766 76.985 96.772 76.985H68.7148C67.6103 76.985 66.7018 77.8849 66.8379 78.981C67.8205 86.8914 74.567 93.0135 82.7434 93.0135Z" fill="#FD8A36"/>
<path d="M35.6863 1.0008C27.5099 1.0008 20.7634 7.12296 19.7808 15.0333C19.6446 16.1295 20.5531 17.0294 21.6577 17.0294L49.7148 17.0294C50.8194 17.0294 51.7279 16.1295 51.5918 15.0333C50.6092 7.12297 43.8627 1.0008 35.6863 1.0008Z" fill="#FD8A36"/>
<defs>
<filter id="filter0_d" x="0" y="19.4009" width="118" height="71.3714" filterUnits="userSpaceOnUse" color-interpolation-filters="sRGB">
<feFlood flood-opacity="0" result="BackgroundImageFix"/>
<feColorMatrix in="SourceAlpha" type="matrix" values="0 0 0 0 0 0 0 0 0 0 0 0 0 0 0 0 0 0 127 0"/>
<feOffset dy="8"/>
<feGaussianBlur stdDeviation="4"/>
<feColorMatrix type="matrix" values="0 0 0 0 0 0 0 0 0 0 0 0 0 0 0 0 0 0 0.08 0"/>
<feBlend mode="normal" in2="BackgroundImageFix" result="effect1_dropShadow"/>
<feBlend mode="normal" in="SourceGraphic" in2="effect1_dropShadow" result="shape"/>
</filter>
</defs>
</svg>
