<svg width="25" height="25" viewBox="0 0 25 25" fill="none" xmlns="http://www.w3.org/2000/svg">
<path d="M11.2345 12.5C11.2345 12.8357 11.3679 13.1576 11.6052 13.3949C11.8426 13.6323 12.1645 13.7656 12.5001 13.7656C12.8358 13.7656 13.1577 13.6323 13.3951 13.3949C13.6324 13.1576 13.7658 12.8357 13.7658 12.5C13.7658 12.1643 13.6324 11.8424 13.3951 11.6051C13.1577 11.3677 12.8358 11.2344 12.5001 11.2344C12.1645 11.2344 11.8426 11.3677 11.6052 11.6051C11.3679 11.8424 11.2345 12.1643 11.2345 12.5ZM16.508 12.5C16.508 12.8357 16.6413 13.1576 16.8787 13.3949C17.116 13.6323 17.4379 13.7656 17.7736 13.7656C18.1093 13.7656 18.4312 13.6323 18.6685 13.3949C18.9059 13.1576 19.0392 12.8357 19.0392 12.5C19.0392 12.1643 18.9059 11.8424 18.6685 11.6051C18.4312 11.3677 18.1093 11.2344 17.7736 11.2344C17.4379 11.2344 17.116 11.3677 16.8787 11.6051C16.6413 11.8424 16.508 12.1643 16.508 12.5ZM5.96109 12.5C5.96109 12.8357 6.09443 13.1576 6.33178 13.3949C6.56913 13.6323 6.89105 13.7656 7.22671 13.7656C7.56238 13.7656 7.88429 13.6323 8.12164 13.3949C8.35899 13.1576 8.49234 12.8357 8.49234 12.5C8.49234 12.1643 8.35899 11.8424 8.12164 11.6051C7.88429 11.3677 7.56238 11.2344 7.22671 11.2344C6.89105 11.2344 6.56913 11.3677 6.33178 11.6051C6.09443 11.8424 5.96109 12.1643 5.96109 12.5ZM23.3951 7.92266C22.7992 6.50674 21.9449 5.23584 20.8559 4.14424C19.7746 3.05896 18.4909 2.19629 17.0775 1.60508C15.6273 0.995996 14.0875 0.6875 12.5001 0.6875H12.4474C10.8496 0.69541 9.30181 1.01182 7.84634 1.63408C6.44508 2.23135 5.1734 3.09556 4.1022 4.17852C3.02378 5.26748 2.1774 6.53311 1.59204 7.94375C0.985599 9.40449 0.679739 10.9575 0.68765 12.5554C0.696597 14.3865 1.12981 16.1906 1.95327 17.8262V21.834C1.95327 22.1557 2.08106 22.4642 2.30852 22.6916C2.53598 22.9191 2.84449 23.0469 3.16617 23.0469H7.17661C8.81216 23.8703 10.6163 24.3036 12.4474 24.3125H12.5028C14.0822 24.3125 15.6141 24.0066 17.0564 23.4081C18.4626 22.8239 19.7415 21.9713 20.8216 20.8979C21.9106 19.8195 22.7675 18.5592 23.3661 17.1538C23.9883 15.6983 24.3047 14.1506 24.3126 12.5527C24.3206 10.947 24.0094 9.38867 23.3951 7.92266ZM19.411 19.4715C17.5626 21.3014 15.1105 22.3086 12.5001 22.3086H12.4553C10.8654 22.3007 9.28599 21.9052 7.89117 21.1616L7.66968 21.043H3.95718V17.3305L3.83853 17.109C3.09497 15.7142 2.69947 14.1348 2.69156 12.5448C2.68101 9.91602 3.6856 7.44805 5.52867 5.58916C7.3691 3.73027 9.82915 2.70195 12.458 2.69141H12.5028C13.8211 2.69141 15.1 2.94717 16.3049 3.45342C17.4809 3.94648 18.5356 4.65576 19.4426 5.56279C20.347 6.46719 21.0589 7.52451 21.552 8.70049C22.0635 9.91865 22.3193 11.2106 22.314 12.5448C22.2982 15.171 21.2672 17.6311 19.411 19.4715Z" fill="#0C6A9F"/>
</svg>
