<svg width="20" height="20" viewBox="0 0 20 20" fill="none" xmlns="http://www.w3.org/2000/svg">
<path d="M7.88281 3.61001C8.94948 2.4275 10.6211 1.66667 12.4995 1.66667C15.7211 1.66667 18.3328 3.90501 18.3328 6.66667C18.3328 8.32417 17.3911 9.79334 15.9428 10.7033C15.9067 10.7254 15.87 10.7466 15.8328 10.7667V14.1417C15.8328 14.3076 15.7833 14.4697 15.6906 14.6073C15.5978 14.7449 15.4662 14.8517 15.3124 14.914C15.1586 14.9763 14.9897 14.9913 14.8274 14.957C14.665 14.9227 14.5166 14.8408 14.4011 14.7217L13.4511 13.7433C14.342 12.69 14.8661 11.3967 14.8661 9.99917C14.8661 6.61 11.7845 3.83667 7.88281 3.61001Z" fill="black"/>
<path d="M8.65352 14.905L5.59768 18.055C5.4822 18.1741 5.33378 18.2561 5.17144 18.2903C5.0091 18.3246 4.84023 18.3096 4.68645 18.2473C4.53267 18.185 4.40099 18.0782 4.30827 17.9406C4.21556 17.8031 4.16602 17.6409 4.16602 17.475V14.1C4.12879 14.0799 4.09211 14.0588 4.05602 14.0367C2.60685 13.1267 1.66602 11.6575 1.66602 10C1.66602 7.23833 4.27768 5 7.49935 5C10.721 5 13.3327 7.23833 13.3327 10C13.3327 12.2717 11.5652 14.19 9.14435 14.7983C8.98211 14.8399 8.81838 14.8755 8.65352 14.905Z" fill="black"/>
</svg>
