<svg width="19" height="19" viewBox="0 0 19 19" fill="none" xmlns="http://www.w3.org/2000/svg">
<path d="M9.5 0C4.25379 0 0 4.25379 0 9.5C0 14.7462 4.25379 19 9.5 19C14.7462 19 19 14.7462 19 9.5C19 4.25379 14.7462 0 9.5 0ZM13.2427 12.42L12.6363 13.247C12.6231 13.265 12.6065 13.2802 12.5874 13.2918C12.5683 13.3033 12.5471 13.311 12.525 13.3144C12.5029 13.3177 12.4804 13.3167 12.4588 13.3113C12.4371 13.3059 12.4167 13.2963 12.3988 13.283L8.89141 10.7257C8.86956 10.71 8.85179 10.6893 8.83962 10.6653C8.82744 10.6413 8.8212 10.6147 8.82143 10.5878V4.75C8.82143 4.6567 8.89777 4.58036 8.99107 4.58036H10.011C10.1044 4.58036 10.1807 4.6567 10.1807 4.75V9.99833L13.2046 12.1846C13.2809 12.2376 13.2979 12.3436 13.2427 12.42Z" fill="black"/>
</svg>
